<svg width="16" height="16" viewBox="0 0 16 16" fill="none" xmlns="http://www.w3.org/2000/svg">
<path d="M11.3333 2C11.6869 2 12.026 2.14048 12.2761 2.39052C12.5261 2.64057 12.6666 2.97971 12.6666 3.33333V13.3333C12.6665 13.4501 12.6359 13.5648 12.5776 13.6659C12.5193 13.7671 12.4355 13.8512 12.3345 13.9098C12.2335 13.9683 12.1189 13.9994 12.0022 13.9998C11.8854 14.0002 11.7706 13.9699 11.6693 13.912L8.66125 11.1933C8.45983 11.0783 8.23188 11.0178 7.99992 11.0178C7.76795 11.0178 7.54 11.0783 7.33859 11.1933L4.33059 13.912C4.22921 13.9699 4.11441 14.0002 3.99767 13.9998C3.88092 13.9994 3.76633 13.9683 3.66535 13.9098C3.56437 13.8512 3.48055 13.7671 3.42226 13.6659C3.36398 13.5648 3.33329 13.4501 3.33325 13.3333V3.33333C3.33325 2.97971 3.47373 2.64057 3.72378 2.39052C3.97382 2.14048 4.31296 2 4.66659 2H11.3333Z" stroke="#1D2F5D" stroke-width="1.5" stroke-linecap="round" stroke-linejoin="round"/>
</svg>
